<?xml version="1.0" encoding="UTF-8"?>
<svg width="158px" height="103px" viewBox="0 0 158 103" version="1.1" xmlns="http://www.w3.org/2000/svg" xmlns:xlink="http://www.w3.org/1999/xlink">
    <!-- Generator: Sketch 51.3 (57544) - http://www.bohemiancoding.com/sketch -->
    <title>Group 5</title>
    <desc>Created with Sketch.</desc>
    <defs></defs>
    <g id="Page-1" stroke="none" stroke-width="1" fill="none" fill-rule="evenodd">
        <g id="survey-main-page---CHS" transform="translate(-1066.000000, -262.000000)" fill-rule="nonzero">
            <g id="Group-5" transform="translate(1066.000000, 262.000000)">
                <g id="undraw_authentication_fsn5">
                    <path d="M89.3690372,14.9076881 C79.2414843,14.921288 69.4932912,12.0394631 60.1691682,8.83803978 C50.8450453,5.6366165 41.5927297,2.05167522 31.6535018,0.532563154 C25.2612885,-0.443911747 17.992483,-0.354152215 12.9957719,3.19134927 C8.18603105,6.60221146 6.79323849,12.247542 6.12122963,17.4631147 C5.61586813,21.3866943 5.38283279,25.5047527 7.27556743,29.093774 C8.58977831,31.585281 10.8388402,33.6388703 12.4240224,36.0134179 C17.9572567,44.2740147 14.6297289,54.8261996 9.25230318,63.2785555 C6.73091509,67.2442948 3.77732775,71.0454749 1.87104454,75.238333 C-0.0352386614,79.4311911 -0.816990907,84.1857263 1.12722828,88.3241847 C3.05383434,92.4259233 7.40563367,95.4029477 12.0758243,97.4361371 C21.5598203,101.573236 32.6019014,102.459951 43.347269,102.801309 C67.1331311,103.558825 90.9650583,102.013873 114.733307,100.468921 C123.529036,99.8977243 132.364056,99.3224473 140.978234,97.6673359 C145.760878,96.7493407 150.685781,95.3866278 154.076987,92.4000834 C158.381367,88.6084232 159.262024,82.4177355 156.129595,77.9678388 C150.876816,70.5041978 137.026117,69.0966051 133.259616,61.0209673 C131.182621,56.5751505 132.973741,51.4765371 135.611647,47.1911995 C141.269528,37.9962875 151.008237,29.7601705 151.172175,19.4759042 C151.284628,12.4134611 146.220174,5.52373709 138.65601,2.45423312 C130.727389,-0.760790092 119.916988,0.06608559 114.362077,6.0582143 C108.650001,12.2312221 98.3110906,14.8981681 89.3690372,14.9076881 Z" id="Shape" fill="#A0E122" opacity="0.1"></path>
                    <path d="M133.622857,87.968978 C133.622857,87.968978 132.262484,87.1151228 130.914286,87.7226129 C130.914286,87.7226129 131.329371,88.4827652 133.036203,88.4111719 L133.622857,87.968978 Z" id="Shape" fill="#A0E122"></path>
                    <path d="M134.450892,88.4159292 C134.450892,88.4159292 134.83103,90.0431531 133.877637,91.1504425 C133.877637,91.1504425 133.304382,90.4796697 133.877637,88.8364478 L134.450892,88.4159292 Z" id="Shape" fill="#A0E122"></path>
                    <path d="M137.234286,86.8430112 C137.234286,86.8430112 137.117995,85.2638155 133.622869,85.7880407 C133.622869,85.7880407 133.606256,86.806498 134.833064,87.2889938 C136.059872,87.7714895 136.622159,87.3646282 137.234286,86.8430112 Z" id="Shape" fill="#A0E122"></path>
                    <path d="M137.400203,86.5929204 C137.400203,86.5929204 138.940942,87.0536399 137.566805,90.2389381 C137.566805,90.2389381 136.549864,90.0278267 136.367268,88.7599166 C136.184672,87.4920065 136.725797,87.0548817 137.400203,86.5929204 Z" id="Shape" fill="#A0E122"></path>
                    <path d="M141.489789,9.78955752 L11.0930678,9.78955752 C10.4515122,9.78955752 9.93142857,10.3109438 9.93142857,10.9541065 L9.93142857,16.4070796 L142.651429,16.4070796 L142.651429,10.9541065 C142.651429,10.6452489 142.529042,10.3490413 142.311192,10.130646 C142.093343,9.91225072 141.797875,9.78955752 141.489789,9.78955752 Z" id="Shape" fill="#3F3D56"></path>
                    <path d="M9.93142857,15.4955752 L9.93142857,92.4304562 C9.93142857,93.7371641 10.9801018,94.7964602 12.2737059,94.7964602 L140.309151,94.7964602 C141.602755,94.7964602 142.651429,93.7371641 142.651429,92.4304562 L142.651429,15.4955752 L9.93142857,15.4955752 Z" id="Shape" fill="#FFFFFF"></path>
                    <ellipse id="Oval" fill="#FA5959" opacity="0.8" cx="13.8025023" cy="12.5240708" rx="1" ry="1"></ellipse>
                    <ellipse id="Oval" fill="#FED253" opacity="0.8" cx="17.6735761" cy="12.5240708" rx="1" ry="1"></ellipse>
                    <ellipse id="Oval" fill="#8CCF4D" opacity="0.8" cx="21.5446499" cy="12.5240708" rx="1" ry="1"></ellipse>
                    <rect id="Rectangle-path" fill="#000000" opacity="0.05" x="21.6685714" y="32.8141593" width="107.44" height="43.7522124"></rect>
                    <rect id="Rectangle-path" fill="#3F3D56" x="22.5714286" y="28.2566372" width="105.634286" height="49.2212389"></rect>
                    <path d="M111.044143,64.4444835 C110.938799,64.68955 110.685974,64.8074882 110.491088,64.9621864 L109.823471,65.495206 C109.733339,65.5896784 109.613957,65.6372568 109.492955,65.6269292 C109.383199,65.579785 109.294424,65.4831509 109.246714,65.3588878 C109.246714,65.3236595 109.246714,65.2853678 109.246714,65.2486079 C109.24164,65.1246266 109.255916,65.0006017 109.288851,64.8825398 C109.354219,64.7093355 109.45558,64.55775 109.583814,64.4414202 C109.831719,64.1683619 110.126582,63.959548 110.44895,63.828754 C110.499203,63.8060163 110.553838,63.7996614 110.606966,63.810374 C110.627439,63.8165912 110.646977,63.8264046 110.664905,63.8394757 C110.712025,63.8992561 110.751898,63.9662485 110.783417,64.0385922 C110.836089,64.1641887 111.098132,64.318887 111.044143,64.4444835 Z" id="Shape" fill="#000000" opacity="0.1"></path>
                    <path d="M123.691429,77.371858 C123.615865,77.4332114 123.525648,77.469711 123.431515,77.4770124 C123.287121,77.4825752 123.142916,77.4612353 123.005166,77.4139198 L121.979192,77.1355701 C121.947022,77.1269755 121.915711,77.1149586 121.885714,77.0996939 C121.902814,76.9054676 121.937013,76.6803137 122.033911,76.60485 C122.178687,76.4996956 122.611876,76.6407261 122.776032,76.6654683 C123.058745,76.7075301 123.346017,76.7570145 123.62189,76.8151586 C123.664657,76.9972189 123.68799,77.1840124 123.691429,77.371858 Z" id="Shape" fill="#000000" opacity="0.1"></path>
                </g>
                <path d="M84.6259216,49.6533992 L83.1987361,49.6533992 L83.1987361,46.8472256 C83.1987361,43.6806847 80.7045845,41.0482977 77.5763623,41.0003198 C76.0527985,40.9841165 74.5858721,41.5841878 73.5011983,42.6673352 C72.4165246,43.7504825 71.8038452,45.2270905 71.7991574,46.7693948 L71.7991574,49.6533992 L70.3751317,49.6533992 C69.065063,49.6574967 68.0040479,50.7315085 68,52.0576246 L68,63.5957745 C68.0040479,64.9218906 69.065063,65.9959025 70.3751317,66 L84.6259216,66 C85.9358182,65.9958995 86.9965302,64.9217182 87,63.5957745 L87,52.0576246 C86.9965302,50.731681 85.9358182,49.6574996 84.6259216,49.6533992 Z M78.3326127,57.1539429 L78.3326127,61.2864387 C78.33547,61.7405114 77.9900508,62.1190663 77.5426576,62.1521731 C77.3152065,62.1629545 77.0933069,62.0790325 76.9285625,61.9199234 C76.7638181,61.7608143 76.6705858,61.540384 76.6705471,61.3098945 L76.6705471,57.1518106 C75.8770918,56.7601179 75.4557057,55.8659145 75.6542703,54.9952177 C75.8528349,54.1245209 76.6187981,53.5077698 77.5015799,53.5077698 C78.3843618,53.5077698 79.1503249,54.1245209 79.3488895,54.9952177 C79.5474541,55.8659145 79.126068,56.7601179 78.3326127,57.1518106 L78.3326127,57.1539429 Z M81.5387771,49.6533992 L73.4612229,49.6533992 L73.4612229,46.7693948 C73.4612229,44.5124002 75.2687377,42.6827446 77.4984201,42.6827446 C79.7281025,42.6827446 81.5356173,44.5124002 81.5356173,46.7693948 L81.5387771,49.6533992 Z" id="Shape" fill="#A0E122"></path>
            </g>
        </g>
    </g>
</svg>